<?xml version="1.0" encoding="UTF-8"?>
<svg version="1.1" xmlns="http://www.w3.org/2000/svg" width="1024" height="1024">
<path d="M0 0 C337.92 0 675.84 0 1024 0 C1024 337.92 1024 675.84 1024 1024 C686.08 1024 348.16 1024 0 1024 C0 686.08 0 348.16 0 0 Z " fill="#FEFEFE" transform="translate(0,0)"/>
<path d="M0 0 C8.34777135 4.70463095 14.8477481 12.75844237 21.55342102 19.47421265 C22.56008102 20.48233841 23.56674419 21.49046101 24.57341003 22.49858093 C25.10500921 23.03095556 25.63660839 23.56333019 26.18431664 24.11183739 C38.46421745 36.40948232 50.7470315 48.70421417 63.03146076 60.99733543 C70.12804754 68.09907939 77.22368975 75.20176237 84.31713867 82.30664062 C90.51754253 88.51702957 96.7197182 94.7256427 102.9240033 100.9321543 C106.20294605 104.21239648 109.48101383 107.49350209 112.75695229 110.77674484 C115.84016149 113.86677421 118.92574537 116.95441269 122.01311493 120.04028511 C123.1410415 121.16848521 124.26812121 122.29753274 125.39425468 123.42752266 C130.68089271 128.73136593 135.98423453 133.94759286 141.67692089 138.82116318 C144.80279148 141.54981174 147.72755394 144.47756836 150.66699219 147.40405273 C151.3347316 148.06522095 152.00247101 148.72638916 152.69044495 149.40759277 C154.87070737 151.56834979 157.04711637 153.73292622 159.22265625 155.8984375 C159.97157387 156.64327959 160.72049149 157.38812168 161.49210358 158.15553474 C165.44837291 162.09105053 169.40143366 166.02975801 173.35205078 169.97094727 C177.42105262 174.02884636 181.50160546 178.07492358 185.58480453 182.11852932 C188.73651195 185.2440687 191.87927875 188.37848368 195.01972198 191.51533699 C196.52020126 193.01095885 198.02404527 194.50321323 199.53136444 195.99194145 C201.63952978 198.07569001 203.73463509 200.17178995 205.82714844 202.27124023 C206.44539993 202.87668167 207.06365143 203.48212311 207.70063782 204.10591125 C212.18859879 208.64811561 215.65639551 213.53652176 217.01953125 219.87109375 C216.90814261 227.11135508 214.80741495 232.03050247 209.73828125 237.21484375 C203.51133935 241.40605465 197.75929131 242.85320464 190.24182129 242.77148724 C189.05033451 242.77667954 189.05033451 242.77667954 187.8347773 242.78197673 C185.18067469 242.78989949 182.52712121 242.77647405 179.87304688 242.7631073 C177.94810897 242.76441596 176.02317158 242.76704351 174.09823704 242.7708748 C168.81451143 242.77757972 163.53096841 242.76558689 158.24726605 242.75054061 C152.54728534 242.73758468 146.84731491 242.7419694 141.14732361 242.74424744 C131.27363648 242.74582045 121.40000883 242.73640828 111.52633667 242.71953392 C97.25067447 242.69515232 82.97504102 242.6873395 68.69936025 242.68356995 C45.53800041 242.67700415 22.37667438 242.65706527 -0.78466797 242.62866211 C-23.28368973 242.60110304 -45.78270302 242.57985502 -68.28173828 242.56713867 C-68.97542207 242.56674409 -69.66910586 242.56634951 -70.38381037 242.56594298 C-77.35015431 242.56198737 -84.31649832 242.55815994 -91.28284239 242.5544264 C-149.69248891 242.52311038 -208.10210348 242.47017815 -266.51171875 242.40234375 C-261.63721147 236.5332423 -256.39183727 231.134166 -250.9984436 225.74189758 C-250.03768368 224.77783238 -249.07713494 223.81355669 -248.11677778 222.84909028 C-245.49145559 220.21381692 -242.86305071 217.58163767 -240.23408079 214.95000398 C-237.39381792 212.10581793 -234.55638601 209.25880977 -231.71852112 206.41223145 C-224.87522979 199.54924108 -218.02714829 192.69104022 -211.17845684 185.83343938 C-207.95051992 182.60111222 -204.72307057 179.36829829 -201.49555588 176.13554955 C-190.76412796 165.38712238 -180.03144887 154.6399469 -169.29514503 143.89638996 C-166.51348567 141.11282086 -163.73183162 138.32924644 -160.95019531 135.5456543 C-160.25887356 134.85384881 -159.56755181 134.16204332 -158.85528092 133.44927403 C-147.64446595 122.23014998 -136.44220181 111.00252828 -125.243468 99.77134631 C-113.73815825 88.23297262 -102.22533869 76.70213579 -90.70508325 65.17868394 C-84.23998343 58.71141934 -77.77821266 52.24090344 -71.32481766 45.76195717 C-65.83240492 40.24784731 -60.33322435 34.74060196 -54.82508923 29.24219552 C-52.01598294 26.43763558 -49.2102036 23.62994821 -46.41308403 20.81342888 C-43.85061903 18.23334547 -41.27903055 15.66273088 -38.69998364 13.09922578 C-37.33154079 11.73428407 -35.9729268 10.35950992 -34.61473238 8.98437005 C-24.50363359 -1.02141677 -13.69843646 -5.98640847 0 0 Z " fill="#35BC62" transform="translate(682.51171875,529.59765625)"/>
<path d="M0 0 C6.59785051 4.43380561 12.22123428 9.94579713 17.78930664 15.578125 C18.61657761 16.40671021 19.44384857 17.23529541 20.29618835 18.08898926 C23.00549292 20.80473774 25.7077409 23.52739765 28.41015625 26.25 C30.30575834 28.15188088 32.20180273 30.05330953 34.09849548 31.95410156 C38.56907528 36.43601026 43.03495081 40.9225721 47.49873966 45.41124344 C55.48579372 53.44275061 63.47848363 61.46863919 71.47649091 69.48923874 C74.72518336 72.74761016 77.96930892 76.0104863 81.2124176 79.27441406 C82.9215231 80.99035185 84.63074065 82.70617803 86.34008789 84.421875 C87.10134979 85.18987427 87.86261169 85.95787354 88.64694214 86.74914551 C92.77464474 90.88551788 96.96972517 94.75062872 101.55445004 98.37969971 C103 100 103 100 103 104 C101.42937469 106.06560993 101.42937469 106.06560993 99.18151855 108.30622864 C98.33483612 109.15985489 97.48815369 110.01348114 96.61581421 110.89297485 C95.66528723 111.83093919 94.71456655 112.76870726 93.76367188 113.70629883 C92.77088621 114.69959322 91.77897369 115.69376099 90.78787231 116.68873596 C88.08980785 119.39223036 85.37947058 122.08311026 82.6666851 124.77182221 C79.82614866 127.59106877 76.99655204 130.42125379 74.16564941 133.25016785 C69.40381437 138.00554851 64.63463981 142.75346149 59.86035156 147.49633789 C53.74953643 153.56699809 47.65008337 159.64893644 41.55449677 165.73488331 C36.30054091 170.98050185 31.04214654 176.22166444 25.78263283 181.46170974 C24.65757997 182.58272484 23.53267509 183.70388848 22.40791893 184.82520127 C19.19407957 188.02918227 15.9778789 191.23075315 12.75780869 194.42847252 C11.32645113 195.85089399 9.89738623 197.27562138 8.46841431 198.70043945 C4.09526153 203.03759388 -0.33954197 207.21390449 -5.00776672 211.22984409 C-8.93363669 214.71809118 -12.59298115 218.4810101 -16.29003906 222.20825195 C-17.65925304 223.5821727 -19.02846809 224.95609239 -20.39772367 226.32997167 C-21.85329006 227.79138463 -23.30761138 229.25402644 -24.76160431 230.71700478 C-27.80135662 233.77519267 -30.84557783 236.82890618 -33.89056396 239.88188171 C-42.54282044 248.55818763 -51.18903339 257.24050176 -59.83105469 265.92700195 C-64.61634464 270.73684208 -69.40522423 275.5430792 -74.19797683 280.34548348 C-77.22503452 283.37907455 -80.24753541 286.4171112 -83.26671648 289.45854056 C-85.58297131 291.78927778 -87.9057572 294.1134912 -90.22753906 296.4387207 C-91.06085754 297.28080078 -91.89417603 298.12288086 -92.75274658 298.99047852 C-93.90480591 300.14058159 -93.90480591 300.14058159 -95.08013916 301.31391907 C-95.74450108 301.98142339 -96.40886299 302.64892771 -97.09335709 303.33665943 C-101.35770737 307.05684572 -104.99697909 307.29010138 -110.5196991 307.26069641 C-111.280391 307.26452196 -112.04108289 307.26834751 -112.82482606 307.27228898 C-115.37571916 307.28261379 -117.92638695 307.27862778 -120.47729492 307.2746582 C-122.30562549 307.2790051 -124.13395424 307.28418818 -125.96228027 307.29014587 C-130.93151797 307.30355304 -135.90067968 307.30411237 -140.86993194 307.30158257 C-145.01978872 307.3005135 -149.16963009 307.30539487 -153.31948358 307.310188 C-163.11379828 307.32129024 -172.90807463 307.32171729 -182.70239258 307.31567383 C-192.79864518 307.30963962 -202.89475822 307.32192935 -212.990987 307.3432439 C-221.66290779 307.36087686 -230.33478423 307.36685837 -239.00672227 307.36360615 C-244.1842044 307.36179503 -249.3615871 307.36441197 -254.53905296 307.37832069 C-259.41215345 307.39092107 -264.2850372 307.38893398 -269.15813446 307.37590981 C-270.94268429 307.37354887 -272.72724947 307.37626136 -274.51178169 307.38453293 C-296.24719869 307.47798035 -296.24719869 307.47798035 -304.55859375 299.66796875 C-307.69315456 296.04071274 -308.79654216 292.34790818 -309.5 287.6875 C-308.33267276 279.07846159 -303.59243836 272.8940393 -297.18359375 267.375 C-288.44596117 259.48909487 -280.13948276 251.22432298 -271.84765625 242.875 C-270.47800611 241.49899467 -269.10816233 240.12318206 -267.73812866 238.74755859 C-262.05580771 233.04016361 -256.37914005 227.3271683 -250.70629883 221.61035156 C-247.19608995 218.07346464 -243.68110536 214.54138345 -240.16308403 211.01226807 C-238.83147455 209.67444887 -237.50176584 208.33473496 -236.17399788 206.99310303 C-234.33669754 205.13672316 -232.49344459 203.28645965 -230.64868164 201.4375 C-230.10283417 200.88289093 -229.55698669 200.32828186 -228.99459839 199.75686646 C-225.22790436 196 -225.22790436 196 -223 196 C-223 195.34 -223 194.68 -223 194 C-221.73669434 192.75793457 -221.73669434 192.75793457 -219.86523438 191.23632812 C-213.957197 186.20676603 -208.56614263 180.67726763 -203.10173035 175.17689514 C-201.11862966 173.18088476 -199.13229426 171.18814294 -197.1451416 169.19616699 C-192.9272615 164.96692895 -188.71333448 160.73376597 -184.5 156.5 C-179.61273167 151.5890321 -174.72380286 146.67974109 -169.83061218 141.77467346 C-167.88551955 139.82315749 -165.94349334 137.86862615 -164.00158691 135.91394043 C-162.79482798 134.70354485 -161.5879261 133.49329176 -160.38085938 132.28320312 C-159.85179489 131.74897232 -159.32273041 131.21474152 -158.77763367 130.6643219 C-155.97715898 127.86346215 -153.10798149 125.19705648 -150.10900879 122.60900879 C-145.84091089 118.91139191 -141.85214132 114.97887124 -137.875 110.97265625 C-137.10639648 110.20259247 -136.33779297 109.43252869 -135.54589844 108.63912964 C-133.89047995 106.97992892 -132.23621686 105.31957479 -130.58300781 103.65817261 C-127.96138614 101.02369682 -125.33657422 98.39243675 -122.7109375 95.76196289 C-117.13780777 90.17744829 -111.56858768 84.58904279 -106 79 C-99.54322744 72.51950976 -93.08475739 66.04072471 -86.62207031 59.56613159 C-84.04545682 56.98307057 -81.47189171 54.396999 -78.8984375 51.81079102 C-77.30744106 50.21615953 -75.71630263 48.62166969 -74.125 47.02734375 C-73.41827148 46.31544891 -72.71154297 45.60355408 -71.98339844 44.87008667 C-68.05646751 40.94274414 -64.03215366 37.19789001 -59.80958557 33.58938122 C-56.69182963 30.85101791 -53.82638886 27.87015879 -50.9375 24.89453125 C-49.6332592 23.56792006 -48.32855792 22.24176145 -47.0234375 20.91601562 C-45.00465486 18.86011217 -42.98915738 16.80133871 -40.98144531 14.73461914 C-39.01770692 12.7161199 -37.04125864 10.71079401 -35.0625 8.70703125 C-34.47267334 8.09342239 -33.88284668 7.47981354 -33.27514648 6.84761047 C-23.83750123 -2.64805174 -12.48207011 -5.74417668 0 0 Z " fill="#138D50" transform="translate(473,465)"/>
<path d="M0 0 C0.71728271 0.00176239 1.43456543 0.00352478 2.17358398 0.00534058 C14.27414812 0.07132351 25.38730007 1.35232163 36.8125 5.5 C37.5746582 5.77295898 38.33681641 6.04591797 39.12207031 6.32714844 C47.84261273 9.5272466 56.1169356 13.24829726 63.8125 18.5 C64.67875 19.08265625 65.545 19.6653125 66.4375 20.265625 C93.74911411 39.35271895 110.28825043 67.26018221 116.42578125 99.74609375 C118.0190195 115.21177008 117.84941193 131.44296962 113.8125 146.5 C113.64621094 147.14404785 113.47992187 147.7880957 113.30859375 148.45166016 C109.38346063 163.37806915 102.75365208 176.51076379 93.5 188.828125 C91.45650467 191.53696696 91.45650467 191.53696696 91.8125 195.5 C93.4165465 197.45745068 94.98239176 199.13436817 96.79785156 200.87597656 C97.32787277 201.40015671 97.85789398 201.92433685 98.40397644 202.46440125 C99.55692935 203.60212803 100.71448008 204.73520979 101.87601471 205.86417389 C103.71807423 207.65515974 105.54732928 209.45836525 107.37371826 211.26531982 C111.91575267 215.75386425 116.47898765 220.22065769 121.04193115 224.68792725 C124.89148165 228.4582949 128.7325723 232.2369097 132.56298065 236.02672577 C134.35849884 237.79646018 136.16570935 239.55362478 137.97369385 241.31060791 C149.45583483 252.58681112 149.45583483 252.58681112 151.37890625 260.96875 C151.36737694 266.96399205 149.62752682 270.89061143 145.8125 275.5 C141.75639156 279.35330302 138.15545389 281.17841809 132.625 281.9375 C121.04945604 280.60915889 113.78305362 272.11289429 106.125 264.1875 C105.02651332 263.07246056 103.92690946 261.95852058 102.82617188 260.84570312 C98.55236507 256.50573408 94.30781053 252.15470523 90.3515625 247.51953125 C85.20967034 241.52157167 79.4783464 236.06139452 73.875 230.5 C72.70223991 229.33226626 71.52971202 228.16429926 70.35742188 226.99609375 C67.51178311 224.16136766 64.66302547 221.32981176 61.8125 218.5 C61.07483398 218.86967896 61.07483398 218.86967896 60.32226562 219.24682617 C29.15168383 234.74890869 -2.94578778 240.87026161 -36.9375 230.3125 C-68.26645413 218.97278073 -92.3450567 198.41051992 -106.875 168.25 C-109.35277324 162.90029397 -111.31339773 157.45953198 -113 151.8125 C-113.19489014 151.16055664 -113.38978027 150.50861328 -113.59057617 149.83691406 C-116.64999901 138.93679321 -117.57839333 128.16938127 -117.5625 116.875 C-117.56195618 116.21836365 -117.56141235 115.56172729 -117.56085205 114.88519287 C-117.51927278 103.92722636 -116.5726016 93.92065142 -113.1875 83.5 C-112.97319336 82.82372559 -112.75888672 82.14745117 -112.53808594 81.45068359 C-102.44888369 50.41206794 -81.45116477 26.61488522 -52.58007812 11.55566406 C-35.98903433 3.24515477 -18.4401606 -0.12222167 0 0 Z " fill="#041B50" transform="translate(688.1875,222.5)"/>
<path d="M0 0 C1.03511719 0.37382812 2.07023438 0.74765625 3.13671875 1.1328125 C23.2306091 8.74680859 38.05387707 25.02978014 47.15869141 44.10400391 C55.22431864 62.2809224 55.92421954 85.3383276 49 104 C44.89292768 114.65566496 39.86201151 123.60733763 32 132 C31.08154297 133.05380859 31.08154297 133.05380859 30.14453125 134.12890625 C16.12787038 149.40079048 -4.54350589 156.77596325 -24.78125 158.28125 C-48.43444032 158.87754892 -69.3434576 150.66628975 -86.625 134.46484375 C-102.40699103 118.08583661 -110.40704863 97.14800536 -110.1484375 74.51953125 C-109.15891128 51.05734385 -100.16116065 30.91115704 -83 15 C-61.09322981 -3.85805181 -27.22866376 -11.39804529 0 0 Z " fill="#FEFEFE" transform="translate(716,264)"/>
<path d="M0 0 C8.25 0 16.5 0 25 0 C25 21.45 25 42.9 25 65 C2.23 65 -20.54 65 -44 65 C-44 57.08 -44 49.16 -44 41 C-29.48 41 -14.96 41 0 41 C0 27.47 0 13.94 0 0 Z " fill="#E8871C" transform="translate(361,367)"/>
<path d="M0 0 C22.44 0 44.88 0 68 0 C68 21.45 68 42.9 68 65 C59.75 65 51.5 65 43 65 C43 51.47 43 37.94 43 24 C28.81 24 14.62 24 0 24 C0 16.08 0 8.16 0 0 Z " fill="#E8861B" transform="translate(317,242)"/>
<path d="M0 0 C22.44 0 44.88 0 68 0 C68 7.92 68 15.84 68 24 C53.81 24 39.62 24 25 24 C25 37.53 25 51.06 25 65 C16.75 65 8.5 65 0 65 C0 43.55 0 22.1 0 0 Z " fill="#E8851B" transform="translate(185,242)"/>
<path d="M0 0 C8.25 0 16.5 0 25 0 C25 13.86 25 27.72 25 42 C39.19 42 53.38 42 68 42 C68 49.59 68 57.18 68 65 C45.56 65 23.12 65 0 65 C0 43.55 0 22.1 0 0 Z " fill="#E36F14" transform="translate(185,367)"/>
<path d="M0 0 C0.99 0.495 0.99 0.495 2 1 C-25.72 28.72 -53.44 56.44 -82 85 C70.46 85.33 222.92 85.66 380 86 C377.52455691 88.47544309 376.11440875 88.2393922 372.73657429 88.26201695 C371.62542439 88.25413591 371.62542439 88.25413591 370.49182701 88.24609566 C369.70442556 88.24840335 368.91702411 88.25071103 368.105762 88.25308865 C365.43918944 88.25842718 362.77285328 88.24937284 360.10629272 88.24050903 C358.18653387 88.24138031 356.26677524 88.24312986 354.34701788 88.24568737 C349.04977463 88.25018015 343.75261156 88.24213083 338.45537853 88.23213124 C332.75120221 88.22352671 327.04703072 88.22641477 321.34284973 88.22793579 C311.45270077 88.22898655 301.56257811 88.22269007 291.67243576 88.21146011 C277.37279945 88.19523384 263.07317591 88.19000006 248.77353139 88.18748413 C225.57557586 88.1831025 202.37763529 88.16979787 179.1796875 88.15087891 C156.63964918 88.13251768 134.09961461 88.11834671 111.55957031 88.10986328 C110.51786089 88.1094687 110.51786089 88.1094687 109.45510684 88.10906615 C102.48108514 88.10642917 95.50706341 88.10387753 88.53304166 88.10138843 C30.02201845 88.08049725 -28.48899062 88.04519646 -87 88 C-83.83339308 84.25723282 -80.67515874 80.5494965 -77.20339966 77.08314514 C-76.51360519 76.39197601 -75.82381073 75.70080688 -75.1131134 74.98869324 C-74.37727524 74.25645035 -73.64143707 73.52420746 -72.88330078 72.76977539 C-71.69692772 71.58318329 -71.69692772 71.58318329 -70.48658752 70.37261963 C-67.89186111 67.77858558 -65.2936189 65.18810398 -62.6953125 62.59765625 C-60.88762933 60.79183966 -59.08016794 58.98580104 -57.2729187 57.17955017 C-53.01442329 52.92447273 -48.75371057 48.67162814 -44.49189556 44.41987652 C-39.63617012 39.57536591 -34.78331665 34.72798268 -29.930691 29.8803674 C-19.95696499 19.91706678 -9.9796745 9.9573421 0 0 Z " fill="#11B24D" transform="translate(503,684)"/>
<path d="M0 0 C8.25 0 16.5 0 25 0 C25 13.86 25 27.72 25 42 C39.19 42 53.38 42 68 42 C68 49.59 68 57.18 68 65 C45.56 65 23.12 65 0 65 C0 43.55 0 22.1 0 0 Z M2 2 C2 22.46 2 42.92 2 64 C23.45 64 44.9 64 67 64 C67 57.07 67 50.14 67 43 C52.81 42.67 38.62 42.34 24 42 C23.67 28.8 23.34 15.6 23 2 C16.07 2 9.14 2 2 2 Z " fill="#DD4F07" transform="translate(185,367)"/>
<path d="M0 0 C0.99 0.495 0.99 0.495 2 1 C0.6875 3.5 0.6875 3.5 -1 6 C-1.99 6 -2.98 6 -4 6 C-6.0793214 7.78959436 -7.98342558 9.59266504 -9.90348816 11.54272461 C-10.50225008 12.13892325 -11.101012 12.7351219 -11.71791822 13.34938717 C-13.73346021 15.35996616 -15.7380555 17.38112141 -17.74291992 19.40234375 C-19.18112362 20.84139318 -20.61998727 22.2797833 -22.0594635 23.71755981 C-25.97499896 27.63223177 -29.88119262 31.55610867 -33.78582931 35.48164749 C-37.86443287 39.57895878 -41.9514893 43.66782006 -46.03767395 47.75756836 C-53.77844231 55.50767457 -61.51152931 63.2653989 -69.241916 71.02585888 C-78.04123683 79.85866961 -86.84904084 88.68300011 -95.65758359 97.50661278 C-113.78120754 115.66162515 -131.89410046 133.82731235 -150 152 C-150 148.24501227 -148.68087494 147.32158021 -146.13570321 144.74379718 C-145.5612071 144.17735748 -144.98671099 143.61091778 -144.39480591 143.02731323 C-143.79185129 142.42108977 -143.18889667 141.81486632 -142.5676707 141.19027245 C-140.53413448 139.14942092 -138.49000535 137.119517 -136.44580078 135.08935547 C-134.99029865 133.63306295 -133.53544924 132.17611781 -132.08120728 130.71856689 C-128.12106076 126.75327255 -124.15161647 122.79740513 -120.18035746 118.84324408 C-116.03354998 114.71143555 -111.89481187 110.57155959 -107.75509644 106.43264771 C-100.80088511 99.48213273 -93.84105368 92.5372871 -86.87744141 85.59619141 C-77.92935931 76.67698307 -68.99055955 67.74853208 -60.05467415 58.81710625 C-52.38556374 51.15197173 -44.71219405 43.49110518 -37.03814077 35.83091974 C-34.56515975 33.36204331 -32.09276978 30.89257613 -29.6204567 28.42303085 C-25.74063918 24.54809718 -21.85818174 20.67582767 -17.973629 16.80564117 C-16.5448792 15.38142434 -15.11697873 13.95635492 -13.68997192 12.53039169 C-11.74867659 10.5908349 -9.80434909 8.65437142 -7.85916138 6.71871948 C-7.28912671 6.14781834 -6.71909205 5.57691719 -6.1317836 4.98871601 C-2.2284155 1.11420775 -2.2284155 1.11420775 0 0 Z " fill="#11A542" transform="translate(657,531)"/>
<path d="M0 0 C0.99 1.98 0.99 1.98 2 4 C0.94425781 4.804375 0.94425781 4.804375 -0.1328125 5.625 C-3.82766627 8.68558731 -7.0747718 12.09109661 -10.36328125 15.578125 C-13.01427811 18.30486463 -15.49700459 20.41477022 -18.84375 22.25 C-22.12601555 23.595235 -22.12601555 23.595235 -22.625 26 C-22.810625 26.99 -22.810625 26.99 -23 28 C-24.61736259 29.3927289 -26.2925002 30.71937515 -28 32 C-30.47553685 34.35477895 -32.73913508 36.658177 -34.8125 39.375 C-38.51149664 43.81379597 -42.81769473 47.63341268 -47.71777344 50.7019043 C-51.49162656 53.20501985 -54.54729927 56.29582686 -57.7109375 59.515625 C-58.63043686 60.4393692 -58.63043686 60.4393692 -59.56851196 61.3817749 C-61.50878977 63.33317081 -63.44196331 65.29143354 -65.375 67.25 C-66.6961499 68.58119051 -68.01775994 69.91192451 -69.33984375 71.2421875 C-72.56524241 74.48953538 -75.78429196 77.7430568 -79 81 C-79.66 80.67 -80.32 80.34 -81 80 C-73.44850996 72.42526471 -65.89426529 64.85328836 -58.33656311 57.28475094 C-54.82671382 53.76969938 -51.31779408 50.25373056 -47.81103516 46.7355957 C-44.42216382 43.33580069 -41.03080336 39.93850656 -37.63775635 36.5428791 C-36.34841308 35.25169859 -35.05994521 33.95964327 -33.7723999 32.66666985 C-21.7845485 20.63032695 -21.7845485 20.63032695 -15.54101562 15.31517029 C-13.65982903 13.70968318 -11.89626193 12.01064907 -10.15625 10.25390625 C-9.55039062 9.64482422 -8.94453125 9.03574219 -8.3203125 8.40820312 C-7.71960938 7.79912109 -7.11890625 7.19003906 -6.5 6.5625 C-5.55253906 5.60827148 -5.55253906 5.60827148 -4.5859375 4.63476562 C-3.05494226 3.09217194 -1.52712333 1.54642686 0 0 Z " fill="#0C6C35" transform="translate(429,483)"/>
<path d="M0 0 C0.66 0 1.32 0 2 0 C2.33 0.99 2.66 1.98 3 3 C-0.85144195 4.24860418 -4.69257231 4.13627363 -8.69415283 4.12025452 C-9.8630918 4.12153615 -9.8630918 4.12153615 -11.0556457 4.12284368 C-13.6689564 4.12449183 -16.28220302 4.11898797 -18.89550781 4.11352539 C-20.76799518 4.11324335 -22.64048266 4.11340158 -24.51296997 4.1139679 C-29.59935741 4.11425521 -34.68572134 4.1083691 -39.77210331 4.10139394 C-45.08657271 4.09514946 -50.40104263 4.09455573 -55.71551514 4.09336853 C-65.78060504 4.09025845 -75.8456841 4.0820494 -85.91076922 4.07201904 C-97.36892547 4.06084789 -108.82708223 4.05534492 -120.28524256 4.05032361 C-143.85683439 4.03986654 -167.42841659 4.02227333 -191 4 C-191 3.67 -191 3.34 -191 3 C-96.455 2.505 -96.455 2.505 0 2 C0 1.34 0 0.68 0 0 Z " fill="#279F5F" transform="translate(372,766)"/>
<path d="M0 0 C8.25 0 16.5 0 25 0 C25 21.45 25 42.9 25 65 C24.67 65 24.34 65 24 65 C22.55769885 52.10384394 22.88918489 39.14233129 22.9375 26.1875 C22.94252434 23.83789158 22.9470856 21.48828212 22.95117188 19.13867188 C22.9612476 13.42573426 22.9808362 7.71294298 23 2 C16.07 2 9.14 2 2 2 C2 14.87 2 27.74 2 41 C1.67 41 1.34 41 1 41 C0.67 27.47 0.34 13.94 0 0 Z " fill="#E78B35" transform="translate(361,367)"/>
<path d="M0 0 C0.99 0.495 0.99 0.495 2 1 C0.6875 3.5 0.6875 3.5 -1 6 C-1.99 6 -2.98 6 -4 6 C-6.18171076 7.89964822 -8.19324458 9.81555091 -10.21557617 11.875 C-11.15257607 12.81134277 -11.15257607 12.81134277 -12.10850525 13.76660156 C-14.17718034 15.83737129 -16.23501989 17.91857454 -18.29296875 20 C-19.72292283 21.43554761 -21.15353949 22.87043551 -22.58479309 24.3046875 C-26.35450774 28.08586994 -30.115128 31.87597431 -33.8739624 35.66796875 C-37.70937988 39.53404528 -41.55327806 43.39166891 -45.39648438 47.25 C-52.93934243 54.82505635 -60.47262562 62.40955945 -68 70 C-68.66 69.67 -69.32 69.34 -70 69 C-61.17137523 60.14824168 -52.34007884 51.29915856 -43.50532722 42.45351505 C-39.40342862 38.34638985 -35.30246869 34.23833629 -31.20361328 30.12817383 C-27.25063073 26.16435452 -23.29523594 22.20295742 -19.33813095 18.24325371 C-17.82613173 16.72940167 -16.31501533 15.21466738 -14.80478287 13.69905281 C-12.6952398 11.58228891 -10.58262689 9.4686364 -8.46923828 7.35571289 C-7.84057861 6.72345795 -7.21191895 6.091203 -6.56420898 5.43978882 C-2.22810432 1.11405216 -2.22810432 1.11405216 0 0 Z " fill="#069835" transform="translate(657,531)"/>
<path d="M0 0 C0.495 0.99 0.495 0.99 1 2 C-0.11375 1.690625 -1.2275 1.38125 -2.375 1.0625 C-7.20509012 -0.15800664 -12.04290069 -0.61399637 -17 -1 C-17.66 0.32 -18.32 1.64 -19 3 C-19.66 3 -20.32 3 -21 3 C-21.33 3.66 -21.66 4.32 -22 5 C-22.84820312 4.8659375 -23.69640625 4.731875 -24.5703125 4.59375 C-29.56486678 5.18536007 -31.57422599 7.90798122 -34.875 11.5 C-35.46796875 12.12003906 -36.0609375 12.74007813 -36.671875 13.37890625 C-38.12855211 14.90606773 -39.56620705 16.45133343 -41 18 C-41.66 17.67 -42.32 17.34 -43 17 C-40.68391361 14.56629985 -38.34426618 12.15654271 -36 9.75 C-35.35160156 9.06808594 -34.70320313 8.38617188 -34.03515625 7.68359375 C-24.38320357 -2.1594867 -13.11711686 -6.13633364 0 0 Z " fill="#0E5D2C" transform="translate(473,465)"/>
<path d="M0 0 C0.99 0.33 1.98 0.66 3 1 C2.48050781 1.44730469 1.96101563 1.89460937 1.42578125 2.35546875 C0.72839844 2.96003906 0.03101563 3.56460938 -0.6875 4.1875 C-1.37199219 4.77917969 -2.05648437 5.37085938 -2.76171875 5.98046875 C-7.00143599 9.80583317 -10.93190378 13.94940198 -14.90625 18.046875 C-16.29512321 19.46332867 -17.68402817 20.87975268 -19.07470703 22.29443359 C-20.02848872 23.26847375 -20.97866981 24.24605213 -21.92529297 25.22705078 C-23.30516598 26.65550752 -24.69929956 28.07014512 -26.09375 29.484375 C-26.91552734 30.32709961 -27.73730469 31.16982422 -28.58398438 32.03808594 C-31.15585187 34.12655877 -32.74274013 34.67659441 -36 35 C-35.06409496 33.8944811 -34.12620142 32.79064547 -33.1875 31.6875 C-32.40439453 30.76517578 -32.40439453 30.76517578 -31.60546875 29.82421875 C-29.42504812 27.34670918 -27.63527746 25.35604513 -24.73046875 23.72802734 C-21.61558957 21.75671879 -19.29010372 19.51571897 -16.69921875 16.89453125 C-15.97736137 16.16842903 -15.97736137 16.16842903 -15.24092102 15.42765808 C-13.71831699 13.89393823 -12.20285057 12.35338342 -10.6875 10.8125 C-9.65085592 9.765815 -8.61375102 8.7195862 -7.57617188 7.67382812 C-5.04542981 5.12114 -2.52103721 2.56227728 0 0 Z " fill="#0D844E" transform="translate(374,539)"/>
<path d="M0 0 C0.66 1.32 1.32 2.64 2 4 C1.29746094 4.53367187 0.59492188 5.06734375 -0.12890625 5.6171875 C-3.87028373 8.72227629 -7.14453009 12.19553302 -10.45117188 15.75390625 C-13.72382916 19.14057869 -16.2905177 20.86298639 -21 22 C-16.61557474 16.74825074 -11.99157907 11.86777527 -7.125 7.0625 C-6.43664062 6.37865234 -5.74828125 5.69480469 -5.0390625 4.99023438 C-3.36166489 3.32448536 -1.68196209 1.6611378 0 0 Z " fill="#09703C" transform="translate(429,483)"/>
<path d="M0 0 C2.67626675 2.44354791 3.79442896 4.29140137 4.23828125 7.98046875 C4.46054017 14.58974705 3.07667779 19.60301055 -1.42578125 24.57421875 C-4.41850276 27.2730813 -6.98650824 28.64586837 -11 29 C-7.42172524 25.16613419 -7.42172524 25.16613419 -4.9375 24.1875 C-1.88287503 22.3153105 -0.9894662 19.30491955 0 16 C0.32763846 13.1699103 0.28897132 10.40629878 0.1875 7.5625 C0.17396484 6.83095703 0.16042969 6.09941406 0.14648438 5.34570312 C0.11153874 3.56347578 0.05774805 1.78163427 0 0 Z " fill="#139A40" transform="translate(895,741)"/>
<path d="M0 0 C0.66 0.33 1.32 0.66 2 1 C0.6875 3.5 0.6875 3.5 -1 6 C-1.99 6 -2.98 6 -4 6 C-6.17502606 7.91225986 -8.18356371 9.83632672 -10.19921875 11.90625 C-10.79426712 12.50554321 -11.38931549 13.10483643 -12.00239563 13.72229004 C-13.90457052 15.64128092 -15.79606205 17.57043112 -17.6875 19.5 C-18.97392 20.80146301 -20.2610211 22.10225318 -21.54882812 23.40234375 C-24.70718002 26.59380369 -27.85598797 29.79441498 -31 33 C-31.66 32.67 -32.32 32.34 -33 32 C-28.62492701 27.60025412 -24.24661472 23.20376764 -19.86523438 18.81030273 C-18.37442402 17.31445586 -16.88451138 15.81771376 -15.39550781 14.32006836 C-13.25820111 12.17066638 -11.1177132 10.02447815 -8.9765625 7.87890625 C-8.30879791 7.20598038 -7.64103333 6.5330545 -6.95303345 5.83973694 C-6.3325412 5.21916916 -5.71204895 4.59860138 -5.07275391 3.95922852 C-4.52648346 3.41073746 -3.98021301 2.8622464 -3.41738892 2.2971344 C-2 1 -2 1 0 0 Z " fill="#10933C" transform="translate(657,531)"/>
<path d="M0 0 C-2.89032949 1.44516475 -5.64076466 1.39314206 -8.7421875 0.49609375 C-11.77494981 -0.17027444 -14.64865451 -0.09351345 -17.75 -0.0625 C-19.50570312 -0.04896484 -19.50570312 -0.04896484 -21.296875 -0.03515625 C-22.18890625 -0.02355469 -23.0809375 -0.01195312 -24 0 C-24 -0.66 -24 -1.32 -24 -2 C-15.10037013 -5.6511302 -8.29739794 -4.39389395 0 0 Z " fill="#219B4C" transform="translate(684,531)"/>
<path d="M0 0 C-0.57764438 3.13084099 -1.40030044 4.77743006 -3.65234375 7.015625 C-4.18150391 7.54414063 -4.71066406 8.07265625 -5.25585938 8.6171875 C-5.81080078 9.15601563 -6.36574219 9.69484375 -6.9375 10.25 C-7.48857422 10.80429687 -8.03964844 11.35859375 -8.60742188 11.9296875 C-12.73287408 16 -12.73287408 16 -15 16 C-14.42235562 12.86915901 -13.59969956 11.22256994 -11.34765625 8.984375 C-10.81849609 8.45585937 -10.28933594 7.92734375 -9.74414062 7.3828125 C-9.18919922 6.84398437 -8.63425781 6.30515625 -8.0625 5.75 C-7.51142578 5.19570312 -6.96035156 4.64140625 -6.39257812 4.0703125 C-2.26712592 0 -2.26712592 0 0 0 Z " fill="#091644" transform="translate(613,250)"/>
<path d="M0 0 C6.49555581 4.50881167 11.97776434 9.73584404 17.5 15.375 C18.32242188 16.20644531 19.14484375 17.03789063 19.9921875 17.89453125 C21.99947551 19.92515982 24.00190534 21.96033167 26 24 C23 24 23 24 21.17822266 22.47119141 C20.5135498 21.77171387 19.84887695 21.07223633 19.1640625 20.3515625 C18.42929687 19.59359375 17.69453125 18.835625 16.9375 18.0546875 C15.40344811 16.4428965 13.86959195 14.83091918 12.3359375 13.21875 C11.59859375 12.45820312 10.86125 11.69765625 10.1015625 10.9140625 C9.43463379 10.2123291 8.76770508 9.5105957 8.08056641 8.78759766 C6.05627115 6.85313212 6.05627115 6.85313212 3.29443359 5.91943359 C2.53727051 5.61602051 1.78010742 5.31260742 1 5 C0.1875 2.375 0.1875 2.375 0 0 Z " fill="#25A44C" transform="translate(814,660)"/>
<path d="M0 0 C1.32 0.66 2.64 1.32 4 2 C3.071875 2.8971875 3.071875 2.8971875 2.125 3.8125 C-0.13676954 6.00811144 -0.13676954 6.00811144 -2 9 C-3.32 9 -4.64 9 -6 9 C-7.7511573 10.4166747 -7.7511573 10.4166747 -9 12 C-9.66 11.67 -10.32 11.34 -11 11 C-7.37 7.37 -3.74 3.74 0 0 Z " fill="#22884D" transform="translate(248,661)"/>
<path d="M0 0 C0.33 0.99 0.66 1.98 1 3 C-0.0828125 3.8353125 -0.0828125 3.8353125 -1.1875 4.6875 C-4.84643731 7.69595956 -8.0828414 10.82489054 -11 14.5625 C-13.104689 17.12758972 -15.35227996 19.01420997 -18 21 C-18.66 20.67 -19.32 20.34 -20 20 C-13.4 13.4 -6.8 6.8 0 0 Z " fill="#2DAB5F" transform="translate(654,535)"/>
<path d="M0 0 C0 4.71428571 0 4.71428571 -1 7 C-2.99065541 8.01847486 -4.99248185 9.01517978 -7 10 C-9.15187711 11.88957155 -11.04175164 13.90187676 -13 16 C-13.66 15.67 -14.32 15.34 -15 15 C-10.05 10.05 -5.1 5.1 0 0 Z " fill="#267242" transform="translate(407,504)"/>
<path d="M0 0 C3.56983538 3.56983538 4.15405706 5.70938611 4.25 10.5625 C4.27578125 11.34753906 4.3015625 12.13257813 4.328125 12.94140625 C4.16570313 13.96041016 4.16570313 13.96041016 4 15 C3.01 15.66 2.02 16.32 1 17 C0.67 11.39 0.34 5.78 0 0 Z " fill="#1C9F4B" transform="translate(895,741)"/>
<path d="M0 0 C1.13480527 3.60993172 1.10015767 6.9842327 1.0625 10.75 C1.05347656 11.92046875 1.04445312 13.0909375 1.03515625 14.296875 C1.02355469 15.18890625 1.01195312 16.0809375 1 17 C-1.729 14.271 -1.97507461 12.4486571 -2.1875 8.625 C-2.0109867 5.2124095 -1.47474505 3.04166167 0 0 Z " fill="#0B7E3A" transform="translate(166,744)"/>
<path d="M0 0 C0.66 0 1.32 0 2 0 C1.57343918 3.09415757 1.07001562 6.05880129 0 9 C-2.625 10.5625 -2.625 10.5625 -5 11 C-3.55049545 7.2089881 -1.84827434 3.6125362 0 0 Z " fill="#0C1741" transform="translate(760,377)"/>
<path d="M0 0 C0 3.70411834 -0.75301769 5.078923 -3 8 C-6.1875 9.3125 -6.1875 9.3125 -9 10 C-8.06409496 8.8944811 -7.12620142 7.79064547 -6.1875 6.6875 C-5.66542969 6.07261719 -5.14335937 5.45773437 -4.60546875 4.82421875 C-3.12827531 3.14575321 -1.59960869 1.56117966 0 0 Z " fill="#087031" transform="translate(347,564)"/>
<path d="M0 0 C1.32 0.33 2.64 0.66 4 1 C4 1.66 4 2.32 4 3 C4.99 3.33 5.98 3.66 7 4 C7.33 5.65 7.66 7.3 8 9 C6.84775972 8.07038578 5.70340824 7.1309875 4.5625 6.1875 C3.60537109 5.40439453 3.60537109 5.40439453 2.62890625 4.60546875 C1 3 1 3 0 0 Z " fill="#1C2749" transform="translate(788,478)"/>
<path d="M0 0 C0.66 0 1.32 0 2 0 C1.82374165 2.37948772 1.30280227 3.70225849 -0.40234375 5.37890625 C-1.90649092 6.62115486 -3.45129851 7.81376056 -5 9 C-5 7.68 -5 6.36 -5 5 C-4.34 5 -3.68 5 -3 5 C-2.67 4.01 -2.34 3.02 -2 2 C-1.34 2 -0.68 2 0 2 C0 1.34 0 0.68 0 0 Z " fill="#259553" transform="translate(483,657)"/>
<path d="M0 0 C0.66 1.32 1.32 2.64 2 4 C1.38125 4.28875 0.7625 4.5775 0.125 4.875 C-2.13325765 5.93720042 -2.13325765 5.93720042 -4 8 C-4.99 7.67 -5.98 7.34 -7 7 C-4.69 4.69 -2.38 2.38 0 0 Z " fill="#075F2C" transform="translate(429,483)"/>
<path d="M0 0 C0.33 0.99 0.66 1.98 1 3 C-1.3125 4.5625 -1.3125 4.5625 -4 6 C-4.99 5.67 -5.98 5.34 -7 5 C-2.25 0 -2.25 0 0 0 Z " fill="#268B50" transform="translate(177,733)"/>
<path d="M0 0 C1.60495567 0.11442461 3.20898119 0.24194694 4.8125 0.375 C5.70582031 0.44460937 6.59914063 0.51421875 7.51953125 0.5859375 C10 1 10 1 13 3 C9.7 3 6.4 3 3 3 C3 2.34 3 1.68 3 1 C2.01 0.67 1.02 0.34 0 0 Z " fill="#07103A" transform="translate(708,225)"/>
<path d="M0 0 C0.33 0.66 0.66 1.32 1 2 C-1.17508418 6.69360269 -1.17508418 6.69360269 -4.1875 7.8125 C-4.785625 7.874375 -5.38375 7.93625 -6 8 C-4.55746343 4.63408134 -2.66735273 2.48952921 0 0 Z " fill="#0A7336" transform="translate(326,585)"/>
<path d="M0 0 C0 0.99 0 1.98 0 3 C-4.625 5.125 -4.625 5.125 -8 4 C-6.4425489 0.88509781 -3.40085499 0 0 0 Z " fill="#12214D" transform="translate(721,415)"/>
<path d="M0 0 C0.99 0.33 1.98 0.66 3 1 C1.35 2.65 -0.3 4.3 -2 6 C-2.33 4.68 -2.66 3.36 -3 2 C-2.01 2 -1.02 2 0 2 C0 1.34 0 0.68 0 0 Z " fill="#279A56" transform="translate(379,760)"/>
<path d="M0 0 C0.66 0 1.32 0 2 0 C1.6875 1.875 1.6875 1.875 1 4 C0.01 4.66 -0.98 5.32 -2 6 C-2 2 -2 2 0 0 Z " fill="#259556" transform="translate(490,650)"/>
<path d="M0 0 C0 3.90838866 -1.50567876 5.11594107 -4 8 C-4.99 7.67 -5.98 7.34 -7 7 C-4.69 4.69 -2.38 2.38 0 0 Z " fill="#055923" transform="translate(421,491)"/>
<path d="M0 0 C3.3 0 6.6 0 10 0 C10.33 1.32 10.66 2.64 11 4 C10.01 3.67 9.02 3.34 8 3 C8 2.34 8 1.68 8 1 C5.36 1 2.72 1 0 1 C0 0.67 0 0.34 0 0 Z " fill="#0C7C4B" transform="translate(456,464)"/>
</svg>
